<svg id="svg" version="1.1" xmlns="http://www.w3.org/2000/svg" xmlns:xlink="http://www.w3.org/1999/xlink" width="400" height="400.75329566854987" viewBox="0, 0, 400,400.75329566854987"><g id="svgg"><path id="path0" d="M242.000 140.494 L 242.000 152.600 254.006 152.489 L 266.012 152.377 265.906 140.489 L 265.800 128.600 253.900 128.494 L 242.000 128.388 242.000 140.494 M125.647 190.943 C 125.317 191.340,125.224 204.127,125.298 238.643 L 125.400 285.800 172.692 285.902 L 219.984 286.003 220.202 285.102 C 220.322 284.606,220.370 267.370,220.310 246.800 L 220.200 209.400 203.216 209.296 C 193.802 209.238,186.070 209.030,185.870 208.830 C 185.671 208.631,185.538 205.035,185.573 200.837 C 185.608 196.640,185.519 192.574,185.374 191.803 L 185.111 190.400 155.604 190.400 C 131.242 190.400,126.019 190.495,125.647 190.943 " stroke="none" fill="#84fbfb" fill-rule="evenodd"></path><path id="path1" d="M139.389 83.700 C 139.286 83.975,139.157 89.420,139.101 95.800 L 139.000 107.400 110.200 107.600 L 81.400 107.800 81.299 213.901 L 81.199 320.001 186.899 319.901 L 292.600 319.800 292.800 291.000 L 293.000 262.200 305.400 262.000 L 317.800 261.800 317.901 172.500 L 318.002 83.200 228.788 83.200 C 157.784 83.200,139.537 83.302,139.389 83.700 M317.600 172.389 L 317.600 261.178 304.700 261.396 C 297.605 261.516,275.825 261.703,256.300 261.811 C 236.775 261.920,220.762 262.052,220.715 262.104 C 220.668 262.157,220.533 267.600,220.415 274.200 L 220.200 286.200 173.043 286.302 C 138.527 286.376,125.740 286.283,125.343 285.953 C 124.681 285.403,124.531 191.845,125.191 190.800 C 125.494 190.319,126.906 190.160,132.284 190.000 L 139.000 189.800 139.292 149.000 C 139.602 105.797,139.891 84.922,140.192 84.100 C 140.338 83.702,158.462 83.600,228.987 83.600 L 317.600 83.600 317.600 172.389 M186.000 152.292 C 185.670 152.417,185.268 152.718,185.106 152.960 C 184.718 153.541,184.712 190.621,185.100 190.234 C 185.265 190.069,185.490 181.624,185.600 171.467 L 185.800 153.000 213.507 153.000 C 235.771 153.000,241.080 152.902,240.531 152.500 C 239.824 151.983,187.337 151.783,186.000 152.292 M241.908 180.791 C 242.005 205.166,241.951 207.991,241.380 208.563 C 240.830 209.112,239.334 209.200,230.505 209.200 C 224.874 209.200,220.373 209.306,220.503 209.436 C 220.857 209.791,241.744 209.616,242.104 209.256 C 242.510 208.850,242.515 154.934,242.109 154.209 C 241.939 153.905,241.849 165.867,241.908 180.791 " stroke="none" fill="#e23323" fill-rule="evenodd"></path><path id="path2" d="M0.000 200.200 L 0.000 400.400 200.000 400.400 L 400.000 400.400 400.000 200.200 L 400.000 0.000 200.000 0.000 L 0.000 0.000 0.000 200.200 M398.000 200.200 L 398.000 398.400 200.000 398.400 L 2.000 398.400 2.000 200.200 L 2.000 2.000 200.000 2.000 L 398.000 2.000 398.000 200.200 M138.100 82.198 C 137.725 82.624,137.600 85.619,137.600 94.183 L 137.600 105.600 109.227 105.600 C 81.205 105.600,80.851 105.610,80.600 106.400 C 80.460 106.840,80.178 107.200,79.973 107.200 C 79.743 107.200,79.600 148.135,79.600 213.800 C 79.600 284.600,79.734 320.400,80.000 320.400 C 80.220 320.400,80.400 320.670,80.400 321.000 C 80.400 321.943,293.395 321.910,293.757 320.967 C 293.891 320.619,294.000 307.572,294.000 291.973 L 294.000 263.612 306.288 263.506 L 318.577 263.400 319.082 262.400 C 320.037 260.512,319.812 83.567,318.853 82.461 L 318.106 81.600 228.353 81.615 C 151.342 81.628,138.529 81.711,138.100 82.198 M317.901 172.500 L 317.800 261.800 305.400 262.000 L 293.000 262.200 292.800 291.000 L 292.600 319.800 186.899 319.901 L 81.199 320.001 81.299 213.901 L 81.400 107.800 110.200 107.600 L 139.000 107.400 139.101 95.800 C 139.157 89.420,139.286 83.975,139.389 83.700 C 139.537 83.302,157.784 83.200,228.788 83.200 L 318.002 83.200 317.901 172.500 " stroke="none" fill="#2c4169" fill-rule="evenodd"></path><path id="path3" d="M140.192 84.100 C 139.891 84.922,139.602 105.797,139.292 149.000 L 139.000 189.800 132.284 190.000 C 126.906 190.160,125.494 190.319,125.191 190.800 C 124.531 191.845,124.681 285.403,125.343 285.953 C 126.278 286.728,220.084 286.380,220.297 285.600 C 220.419 285.154,220.370 285.129,220.106 285.502 C 219.824 285.900,210.036 285.982,172.575 285.902 L 125.400 285.800 125.298 238.643 C 125.224 204.127,125.317 191.340,125.647 190.943 C 126.019 190.495,131.217 190.400,155.449 190.400 L 184.800 190.400 184.806 171.900 C 184.810 160.944,184.967 153.155,185.191 152.800 C 185.521 152.278,189.094 152.186,212.643 152.092 C 241.792 151.975,240.885 151.916,241.995 153.990 C 242.495 154.926,242.601 208.759,242.103 209.257 C 241.931 209.429,236.977 209.592,231.095 209.620 L 220.400 209.669 220.406 236.334 C 220.409 251.001,220.554 262.777,220.727 262.504 C 220.972 262.119,228.894 261.965,256.421 261.811 C 275.879 261.703,297.605 261.516,304.700 261.396 L 317.600 261.178 317.600 172.389 L 317.600 83.600 228.987 83.600 C 158.462 83.600,140.338 83.702,140.192 84.100 M265.906 140.489 L 266.012 152.377 254.006 152.489 L 242.000 152.600 242.000 140.494 L 242.000 128.388 253.900 128.494 L 265.800 128.600 265.906 140.489 " stroke="none" fill="#fb731c" fill-rule="evenodd"></path><path id="path4" d="M185.831 153.149 C 185.464 153.744,185.509 208.469,185.877 208.837 C 186.186 209.146,196.914 209.235,230.471 209.208 C 239.324 209.201,240.831 209.112,241.380 208.563 C 242.317 207.626,242.143 153.787,241.200 153.191 C 240.434 152.707,186.130 152.666,185.831 153.149 " stroke="none" fill="#7f0af7" fill-rule="evenodd"></path></g></svg>